<svg width="1500" height="265" viewBox="0 0 1500 265" fill="none" xmlns="http://www.w3.org/2000/svg">
<mask id="mask0" mask-type="alpha" maskUnits="userSpaceOnUse" x="0" y="0" width="1500" height="265">
<rect width="1500" height="265" fill="url(#paint0_linear)"/>
</mask>
<g mask="url(#mask0)">
<path opacity="0.6" d="M0 0L750 100L1500 0V2L750 102L0 2V0Z" transform="translate(0 162)" fill="#C0C7CD" fill-opacity="0.4"/>
<path opacity="0.4" d="M0 0L750 100L1500 0V2L750 102L0 2V0Z" transform="translate(0 97)" fill="#C0C7CD" fill-opacity="0.45"/>
<path opacity="0.4" d="M0 0L750 100L1500 0V2L750 102L0 2V0Z" transform="translate(0 29)" fill="#C0C7CD" fill-opacity="0.3"/>
<path opacity="0.4" d="M0 0L750 100L1500 0V2L750 102L0 2V0Z" transform="translate(0 -40)" fill="#C0C7CD" fill-opacity="0.15"/>
</g>
<defs>
<linearGradient id="paint0_linear" x2="1" gradientUnits="userSpaceOnUse" gradientTransform="translate(9.83518e-05 -4112.28) scale(1500 8490.57)">
<stop stop-color="white" stop-opacity="0"/>
<stop offset="0.05" stop-color="white"/>
<stop offset="0.951333" stop-color="white"/>
<stop offset="1" stop-color="white" stop-opacity="0"/>
</linearGradient>
</defs>
</svg>
