<svg width="903" height="889" viewBox="0 0 903 889" fill="none" xmlns="http://www.w3.org/2000/svg">
<path opacity="0.4" d="M0 161.6C0 142.4 13.6 118.7 30.3 109.1L206.8 7.2C223.5 -2.4 250.8 -2.4 267.4 7.2L444 109.1C460.7 118.7 474.3 142.3 474.3 161.6V365.4C474.3 384.6 460.7 408.3 444 417.9L267.5 519.9C250.8 529.5 223.5 529.5 206.9 519.9L30.3 418C13.6 408.4 0 384.7 0 365.5V161.6Z" transform="translate(216 181)" stroke="#C0C7CD" stroke-opacity="0.6" stroke-width="2"/>
<path opacity="0.4" d="M0 239.865C0 190.295 35.1757 129.524 78.0822 104.675L227.418 18.5403C270.324 -6.1801 340.676 -6.1801 383.582 18.5403L532.918 104.675C575.824 129.396 611 190.295 611 239.865V412.135C611 461.705 575.824 522.476 532.918 547.325L383.582 633.46C340.676 658.18 270.324 658.18 227.418 633.46L78.0822 547.325C35.1757 522.604 0 461.705 0 412.135V239.865Z" transform="translate(147 119)" stroke="#C0C7CD" stroke-opacity="0.45" stroke-width="2"/>
<path opacity="0.4" d="M0 335.757C0 243.814 65.0192 131.193 144.505 85.2217L232.416 34.4784C311.901 -11.4928 442.099 -11.4928 521.584 34.4784L609.495 85.2217C688.981 131.193 754 243.814 754 335.757V437.243C754 529.186 688.981 641.807 609.495 687.778L521.584 738.522C442.099 784.493 311.901 784.493 232.416 738.522L144.505 687.778C65.0192 641.807 0 529.186 0 437.243V335.757Z" transform="translate(77 58)" stroke="#C0C7CD" stroke-opacity="0.3" stroke-width="2"/>
<path opacity="0.4" d="M0 443.536C0 300.61 101.419 125.226 225.25 53.6684C349.081 -17.8895 551.73 -17.8895 675.75 53.6684C799.77 125.226 901 300.61 901 443.536C901 586.462 799.581 762.035 675.56 833.403C551.54 904.771 349.081 904.961 225.06 833.403C101.04 761.845 0 586.462 0 443.536Z" transform="translate(1 1)" stroke="#C0C7CD" stroke-opacity="0.15" stroke-width="2"/>
</svg>
