<svg width="53" height="50" viewBox="0 0 53 50" fill="none" xmlns="http://www.w3.org/2000/svg">
<path d="M13.5145 47.9876C20.9783 47.9876 27.029 37.2452 27.029 23.9938C27.029 10.7424 20.9783 0 13.5145 0C6.05064 0 0 10.7424 0 23.9938C0 37.2452 6.05064 47.9876 13.5145 47.9876Z" transform="translate(13.0293 1)" stroke="#78D193" stroke-width="2" stroke-miterlimit="10" stroke-linecap="round" stroke-linejoin="round"/>
<path d="M0 33.5913H46.1675M0 14.3963H46.1675M23.0837 0V47.9876" transform="translate(3.46289 1)" stroke="#78D193" stroke-width="2" stroke-miterlimit="10" stroke-linecap="round" stroke-linejoin="round"/>
<path d="M25.1823 47.9876C39.09 47.9876 50.3645 37.2452 50.3645 23.9938C50.3645 10.7424 39.09 0 25.1823 0C11.2745 0 0 10.7424 0 23.9938C0 37.2452 11.2745 47.9876 25.1823 47.9876Z" transform="translate(1.36328 1)" stroke="#78D193" stroke-width="2" stroke-miterlimit="10" stroke-linecap="round" stroke-linejoin="round"/>
</svg>
