<svg width="53" height="43" viewBox="0 0 53 43" fill="none" xmlns="http://www.w3.org/2000/svg">
<path fill-rule="evenodd" clip-rule="evenodd" d="M23.3389 1.5C23.3389 0.671875 22.667 0 21.8389 0H16.7539C14.8301 0 13.2236 0.357422 11.9336 1.14062C10.6211 1.9375 9.77832 3.09082 9.24512 4.41797C8.72363 5.71484 8.49023 7.19824 8.37598 8.7334C8.2627 10.2607 8.2627 11.9453 8.2627 13.668V13.7041C8.2627 15.7725 7.50488 17.0225 6.41895 17.8105C5.25977 18.6514 3.54785 19.0889 1.5 19.0889C0.671875 19.0889 0 19.7607 0 20.5889C0 21.418 0.671875 22.0889 1.5 22.0889C3.54785 22.0889 5.25977 22.5264 6.41895 23.3672C7.50488 24.1553 8.2627 25.4053 8.2627 27.4736V27.5098C8.2627 29.2324 8.2627 30.917 8.37598 32.4443C8.49023 33.9795 8.72363 35.4629 9.24512 36.7598C9.77832 38.0869 10.6211 39.2402 11.9336 40.0371C13.2236 40.8203 14.8301 41.1777 16.7539 41.1777H21.8389C22.667 41.1777 23.3389 40.5059 23.3389 39.6777C23.3389 38.8496 22.667 38.1777 21.8389 38.1777H16.7539C15.1826 38.1777 14.168 37.8838 13.4912 37.4736C12.8369 37.0762 12.3691 36.4902 12.0283 35.6416C11.6758 34.7627 11.4727 33.6328 11.3682 32.2227C11.2637 30.8164 11.2627 29.2383 11.2627 27.4736C11.2627 24.5342 10.1143 22.3428 8.18066 20.9395C8.00977 20.8154 7.83398 20.6992 7.6543 20.5889C7.83398 20.4785 8.00977 20.3623 8.18066 20.2383C10.1143 18.835 11.2627 16.6436 11.2627 13.7041C11.2627 11.9395 11.2637 10.3613 11.3682 8.95508C11.4727 7.54492 11.6758 6.41504 12.0283 5.53613C12.3691 4.6875 12.8369 4.10156 13.4912 3.7041C14.168 3.29395 15.1826 3 16.7539 3H21.8389C22.667 3 23.3389 2.32812 23.3389 1.5ZM30.418 0C29.5898 0 28.918 0.671875 28.918 1.5C28.918 2.32812 29.5898 3 30.418 3H35.5029C37.0742 3 38.0889 3.29395 38.7656 3.7041C39.4199 4.10156 39.8877 4.6875 40.2285 5.53613C40.5811 6.41504 40.7842 7.54492 40.8887 8.95508C40.9932 10.3613 40.9941 11.9395 40.9941 13.7041C40.9941 16.6436 42.1426 18.835 44.0762 20.2383C44.2471 20.3623 44.4229 20.4785 44.6025 20.5889C44.4229 20.6992 44.2471 20.8154 44.0762 20.9395C42.1426 22.3428 40.9941 24.5342 40.9941 27.4736C40.9941 29.2383 40.9932 30.8164 40.8887 32.2227C40.7842 33.6328 40.5811 34.7627 40.2285 35.6416C39.8877 36.4902 39.4199 37.0762 38.7656 37.4736C38.0889 37.8838 37.0742 38.1777 35.5029 38.1777H30.418C29.5898 38.1777 28.918 38.8496 28.918 39.6777C28.918 40.5059 29.5898 41.1777 30.418 41.1777H35.5029C37.4268 41.1777 39.0332 40.8203 40.3232 40.0371C41.6357 39.2402 42.4785 38.0869 43.0117 36.7598C43.5332 35.4629 43.7666 33.9795 43.8809 32.4443C43.9941 30.917 43.9941 29.2324 43.9941 27.5098V27.4736C43.9941 25.4053 44.752 24.1553 45.8379 23.3672C46.9971 22.5264 48.709 22.0889 50.7568 22.0889C51.585 22.0889 52.2568 21.418 52.2568 20.5889C52.2568 19.7607 51.585 19.0889 50.7568 19.0889C48.709 19.0889 46.9971 18.6514 45.8379 17.8105C44.752 17.0225 43.9941 15.7725 43.9941 13.7041V13.668C43.9941 11.9453 43.9941 10.2607 43.8809 8.7334C43.7666 7.19824 43.5332 5.71484 43.0117 4.41797C42.4785 3.09082 41.6357 1.9375 40.3232 1.14062C39.0332 0.357422 37.4268 0 35.5029 0H30.418Z" transform="translate(0.142578 0.994141)" fill="#78D193"/>
</svg>
