<svg width="65" height="42" viewBox="0 0 65 42" fill="none" xmlns="http://www.w3.org/2000/svg">
<mask id="path-1-inside-1" fill="white">
<path fill-rule="evenodd" clip-rule="evenodd" d="M10.0703 0.246826C9.4707 -0.0822754 8.74512 -0.0822754 8.14551 0.246826L1.03711 4.14819C0.397461 4.49878 0 5.17163 0 5.90112V13.532C0 14.2615 0.397461 14.9333 1.03711 15.2849L8.14551 19.1863C8.74512 19.5154 9.4707 19.5154 10.0703 19.1863L17.1787 15.2849C17.8184 14.9333 18.2158 14.2615 18.2158 13.532V5.90112C18.2158 5.17163 17.8184 4.49878 17.1787 4.14819L10.0703 0.246826ZM10.0713 2.49683C9.47168 2.16772 8.74609 2.16772 8.14648 2.49683L3.08789 5.27319C2.44824 5.62476 2.0498 6.29663 2.0498 7.02612V12.407C2.0498 13.1375 2.44824 13.8093 3.08789 14.1609L8.14648 16.9373C8.74609 17.2664 9.47168 17.2664 10.0713 16.9373L15.1299 14.1609C15.7695 13.8093 16.168 13.1375 16.168 12.407V7.02612C16.168 6.29663 15.7695 5.62476 15.1299 5.27319L10.0713 2.49683Z"/>
</mask>
<path fill-rule="evenodd" clip-rule="evenodd" d="M10.0703 0.246826C9.4707 -0.0822754 8.74512 -0.0822754 8.14551 0.246826L1.03711 4.14819C0.397461 4.49878 0 5.17163 0 5.90112V13.532C0 14.2615 0.397461 14.9333 1.03711 15.2849L8.14551 19.1863C8.74512 19.5154 9.4707 19.5154 10.0703 19.1863L17.1787 15.2849C17.8184 14.9333 18.2158 14.2615 18.2158 13.532V5.90112C18.2158 5.17163 17.8184 4.49878 17.1787 4.14819L10.0703 0.246826ZM10.0713 2.49683C9.47168 2.16772 8.74609 2.16772 8.14648 2.49683L3.08789 5.27319C2.44824 5.62476 2.0498 6.29663 2.0498 7.02612V12.407C2.0498 13.1375 2.44824 13.8093 3.08789 14.1609L8.14648 16.9373C8.74609 17.2664 9.47168 17.2664 10.0713 16.9373L15.1299 14.1609C15.7695 13.8093 16.168 13.1375 16.168 12.407V7.02612C16.168 6.29663 15.7695 5.62476 15.1299 5.27319L10.0713 2.49683Z" transform="translate(22.9355 22.123)" fill="#78D193"/>
<path d="M8.14551 0.246826L9.10778 2.00012L9.10781 2.0001L8.14551 0.246826ZM10.0703 0.246826L9.10801 2.0001L9.10804 2.00012L10.0703 0.246826ZM1.03711 4.14819L1.99838 5.90204L1.99938 5.90148L1.03711 4.14819ZM1.03711 15.2849L0.0737853 17.0376L0.0748349 17.0382L1.03711 15.2849ZM8.14551 19.1863L9.10781 17.433L9.10778 17.433L8.14551 19.1863ZM10.0703 19.1863L9.10804 17.433L9.10801 17.433L10.0703 19.1863ZM17.1787 15.2849L18.141 17.0382L18.142 17.0376L17.1787 15.2849ZM17.1787 4.14819L16.2164 5.90148L16.2174 5.90204L17.1787 4.14819ZM8.14648 2.49683L9.10876 4.25011L9.10879 4.2501L8.14648 2.49683ZM10.0713 2.49683L9.10899 4.2501L9.10901 4.25011L10.0713 2.49683ZM3.08789 5.27319L2.12561 3.5199L2.12457 3.52048L3.08789 5.27319ZM3.08789 14.1609L2.12457 15.9136L2.12561 15.9142L3.08789 14.1609ZM8.14648 16.9373L9.10879 15.184L9.10876 15.184L8.14648 16.9373ZM10.0713 16.9373L9.10901 15.184L9.10899 15.184L10.0713 16.9373ZM15.1299 14.1609L16.0922 15.9142L16.0932 15.9136L15.1299 14.1609ZM15.1299 5.27319L16.0932 3.52048L16.0922 3.5199L15.1299 5.27319ZM9.10781 2.0001H9.10801L11.0326 -1.50645C9.83364 -2.16452 8.38218 -2.16452 7.18321 -1.50645L9.10781 2.0001ZM1.99938 5.90148L9.10778 2.00012L7.18323 -1.50646L0.0748349 2.3949L1.99938 5.90148ZM2 5.90112C2 5.9011 1.99982 5.90125 2.00018 5.90063C2.00036 5.90033 2.00037 5.90042 1.99995 5.90083C1.99972 5.90105 1.99941 5.90132 1.99906 5.90158C1.99888 5.90171 1.99872 5.90182 1.99859 5.90191C1.99853 5.90195 1.99847 5.90198 1.99843 5.902C1.99839 5.90203 1.99837 5.90204 1.99838 5.90204L0.0758426 2.39435C-1.2061 3.09697 -2 4.44321 -2 5.90112H2ZM2 13.532V5.90112H-2V13.532H2ZM2.00043 13.5322L2 13.532H-2C-2 14.9914 -1.20494 16.3348 0.0737855 17.0376L2.00043 13.5322ZM9.10778 17.433L1.99938 13.5316L0.0748349 17.0382L7.18323 20.9396L9.10778 17.433ZM9.10801 17.433H9.10781L7.18321 20.9396C8.38218 21.5976 9.83364 21.5976 11.0326 20.9396L9.10801 17.433ZM16.2164 13.5316L9.10804 17.433L11.0326 20.9396L18.141 17.0382L16.2164 13.5316ZM16.2158 13.532L16.2154 13.5322L18.142 17.0376C19.4208 16.3348 20.2158 14.9914 20.2158 13.532H16.2158ZM16.2158 5.90112V13.532H20.2158V5.90112H16.2158ZM16.2174 5.90204C16.2174 5.90204 16.2174 5.90203 16.2174 5.902C16.2173 5.90198 16.2173 5.90195 16.2172 5.90191C16.2171 5.90182 16.2169 5.90171 16.2168 5.90158C16.2164 5.90132 16.2161 5.90105 16.2159 5.90083C16.2155 5.90042 16.2155 5.90033 16.2156 5.90063C16.216 5.90125 16.2158 5.9011 16.2158 5.90112H20.2158C20.2158 4.44321 19.4219 3.09697 18.14 2.39435L16.2174 5.90204ZM9.10804 2.00012L16.2164 5.90148L18.141 2.3949L11.0326 -1.50646L9.10804 2.00012ZM9.10879 4.2501H9.10899L11.0336 0.743551C9.83462 0.085483 8.38315 0.085483 7.18418 0.743551L9.10879 4.2501ZM4.05017 7.02648L9.10876 4.25011L7.18421 0.743537L2.12561 3.5199L4.05017 7.02648ZM4.0498 7.02612C4.0498 7.02602 4.04981 7.0262 4.04976 7.02655C4.04971 7.02689 4.04965 7.02719 4.04959 7.02742C4.04947 7.02783 4.04944 7.02774 4.04969 7.02733C4.05016 7.02654 4.05041 7.02635 4.05121 7.02591L2.12457 3.52048C0.847465 4.2224 0.0498047 5.56484 0.0498047 7.02612H4.0498ZM4.0498 12.407V7.02612H0.0498047V12.407H4.0498ZM4.05121 12.4082C4.05045 12.4078 4.05029 12.4076 4.04987 12.4069C4.04963 12.4065 4.04962 12.4064 4.0497 12.4067C4.04982 12.4071 4.0498 12.4074 4.0498 12.407H0.0498047C0.0498047 13.8687 0.846985 15.2114 2.12457 15.9136L4.05121 12.4082ZM9.10876 15.184L4.05017 12.4076L2.12561 15.9142L7.18421 18.6905L9.10876 15.184ZM9.10899 15.184H9.10879L7.18418 18.6905C8.38315 19.3486 9.83462 19.3486 11.0336 18.6905L9.10899 15.184ZM14.1676 12.4076L9.10901 15.184L11.0336 18.6905L16.0922 15.9142L14.1676 12.4076ZM14.168 12.407C14.168 12.4074 14.1679 12.4071 14.1681 12.4067C14.1681 12.4064 14.1681 12.4065 14.1679 12.4069C14.1675 12.4076 14.1673 12.4078 14.1666 12.4082L16.0932 15.9136C17.3708 15.2114 18.168 13.8687 18.168 12.407H14.168ZM14.168 7.02612V12.407H18.168V7.02612H14.168ZM14.1666 7.02591C14.1674 7.02635 14.1676 7.02654 14.1681 7.02733C14.1683 7.02774 14.1683 7.02783 14.1682 7.02742C14.1681 7.02719 14.1681 7.02689 14.168 7.02655C14.168 7.0262 14.168 7.02602 14.168 7.02612H18.168C18.168 5.56484 17.3703 4.2224 16.0932 3.52048L14.1666 7.02591ZM9.10901 4.25011L14.1676 7.02648L16.0922 3.5199L11.0336 0.743537L9.10901 4.25011Z" transform="translate(22.9355 22.123)" fill="#78D193" mask="url(#path-1-inside-1)"/>
<path d="M9.55497 0.528133C10.1543 0.199188 10.8802 0.199188 11.4795 0.528133L18.5877 4.42939C19.2277 4.78063 19.6254 5.45266 19.6254 6.18268V13.813C19.6254 14.5431 19.2277 15.2151 18.5877 15.5663L11.4795 19.4676C10.8802 19.7965 10.1543 19.7965 9.55497 19.4676L2.44677 15.5663C1.8068 15.2151 1.40904 14.5431 1.40904 13.813V6.18268C1.40904 5.45266 1.8068 4.78063 2.44677 4.42939L9.55497 0.528133Z" transform="translate(43.6133 21.8418)" fill="#78D193"/>
<mask id="path-4-inside-2" fill="white">
<path fill-rule="evenodd" clip-rule="evenodd" d="M10.0703 0.246826C9.4707 -0.0822754 8.74512 -0.0822754 8.14551 0.246826L1.03711 4.14819C0.397461 4.49878 0 5.17163 0 5.90112V13.532C0 14.2615 0.397461 14.9333 1.03711 15.2849L8.14551 19.1863C8.74512 19.5154 9.4707 19.5154 10.0703 19.1863L17.1787 15.2849C17.8184 14.9333 18.2158 14.2615 18.2158 13.532V5.90112C18.2158 5.17163 17.8184 4.49878 17.1787 4.14819L10.0703 0.246826ZM10.0703 2.49683C9.4707 2.16772 8.74512 2.16772 8.14551 2.49683L3.08691 5.27319C2.44727 5.62476 2.04883 6.29663 2.04883 7.02612V12.407C2.04883 13.1375 2.44727 13.8093 3.08691 14.1609L8.14551 16.9373C8.74512 17.2664 9.4707 17.2664 10.0703 16.9373L15.1289 14.1609C15.7686 13.8093 16.167 13.1375 16.167 12.407V7.02612C16.167 6.29663 15.7686 5.62476 15.1289 5.27319L10.0703 2.49683Z"/>
</mask>
<path fill-rule="evenodd" clip-rule="evenodd" d="M10.0703 0.246826C9.4707 -0.0822754 8.74512 -0.0822754 8.14551 0.246826L1.03711 4.14819C0.397461 4.49878 0 5.17163 0 5.90112V13.532C0 14.2615 0.397461 14.9333 1.03711 15.2849L8.14551 19.1863C8.74512 19.5154 9.4707 19.5154 10.0703 19.1863L17.1787 15.2849C17.8184 14.9333 18.2158 14.2615 18.2158 13.532V5.90112C18.2158 5.17163 17.8184 4.49878 17.1787 4.14819L10.0703 0.246826ZM10.0703 2.49683C9.4707 2.16772 8.74512 2.16772 8.14551 2.49683L3.08691 5.27319C2.44727 5.62476 2.04883 6.29663 2.04883 7.02612V12.407C2.04883 13.1375 2.44727 13.8093 3.08691 14.1609L8.14551 16.9373C8.74512 17.2664 9.4707 17.2664 10.0703 16.9373L15.1289 14.1609C15.7686 13.8093 16.167 13.1375 16.167 12.407V7.02612C16.167 6.29663 15.7686 5.62476 15.1289 5.27319L10.0703 2.49683Z" transform="translate(0.849609 22.123)" fill="#78D193"/>
<path d="M8.14551 0.246826L9.10778 2.00012L9.10781 2.0001L8.14551 0.246826ZM10.0703 0.246826L9.10801 2.0001L9.10804 2.00012L10.0703 0.246826ZM1.03711 4.14819L1.99838 5.90204L1.99938 5.90148L1.03711 4.14819ZM1.03711 15.2849L0.0737853 17.0376L0.0748349 17.0382L1.03711 15.2849ZM8.14551 19.1863L9.10781 17.433L9.10778 17.433L8.14551 19.1863ZM10.0703 19.1863L9.10804 17.433L9.10801 17.433L10.0703 19.1863ZM17.1787 15.2849L18.141 17.0382L18.142 17.0376L17.1787 15.2849ZM17.1787 4.14819L16.2164 5.90148L16.2174 5.90204L17.1787 4.14819ZM8.14551 2.49683L9.10779 4.25011L9.10781 4.2501L8.14551 2.49683ZM10.0703 2.49683L9.10801 4.2501L9.10803 4.25011L10.0703 2.49683ZM3.08691 5.27319L2.12464 3.5199L2.12359 3.52048L3.08691 5.27319ZM3.08691 14.1609L2.12359 15.9136L2.12464 15.9142L3.08691 14.1609ZM8.14551 16.9373L9.10781 15.184L9.10779 15.184L8.14551 16.9373ZM10.0703 16.9373L9.10803 15.184L9.10801 15.184L10.0703 16.9373ZM15.1289 14.1609L16.0912 15.9142L16.0922 15.9136L15.1289 14.1609ZM15.1289 5.27319L16.0922 3.52048L16.0912 3.5199L15.1289 5.27319ZM9.10781 2.0001H9.10801L11.0326 -1.50645C9.83364 -2.16452 8.38218 -2.16452 7.18321 -1.50645L9.10781 2.0001ZM1.99938 5.90148L9.10778 2.00012L7.18323 -1.50646L0.0748349 2.3949L1.99938 5.90148ZM2 5.90112C2 5.9011 1.99982 5.90125 2.00018 5.90063C2.00036 5.90033 2.00037 5.90042 1.99995 5.90083C1.99972 5.90105 1.99941 5.90132 1.99906 5.90158C1.99888 5.90171 1.99872 5.90182 1.99859 5.90191C1.99853 5.90195 1.99847 5.90198 1.99843 5.902C1.99839 5.90203 1.99837 5.90204 1.99838 5.90204L0.0758426 2.39435C-1.2061 3.09697 -2 4.44321 -2 5.90112H2ZM2 13.532V5.90112H-2V13.532H2ZM2.00043 13.5322L2 13.532H-2C-2 14.9914 -1.20494 16.3348 0.0737855 17.0376L2.00043 13.5322ZM9.10778 17.433L1.99938 13.5316L0.0748349 17.0382L7.18323 20.9396L9.10778 17.433ZM9.10801 17.433H9.10781L7.18321 20.9396C8.38218 21.5976 9.83364 21.5976 11.0326 20.9396L9.10801 17.433ZM16.2164 13.5316L9.10804 17.433L11.0326 20.9396L18.141 17.0382L16.2164 13.5316ZM16.2158 13.532L16.2154 13.5322L18.142 17.0376C19.4208 16.3348 20.2158 14.9914 20.2158 13.532H16.2158ZM16.2158 5.90112V13.532H20.2158V5.90112H16.2158ZM16.2174 5.90204C16.2174 5.90204 16.2174 5.90203 16.2174 5.902C16.2173 5.90198 16.2173 5.90195 16.2172 5.90191C16.2171 5.90182 16.2169 5.90171 16.2168 5.90158C16.2164 5.90132 16.2161 5.90105 16.2159 5.90083C16.2155 5.90042 16.2155 5.90033 16.2156 5.90063C16.216 5.90125 16.2158 5.9011 16.2158 5.90112H20.2158C20.2158 4.44321 19.4219 3.09697 18.14 2.39435L16.2174 5.90204ZM9.10804 2.00012L16.2164 5.90148L18.141 2.3949L11.0326 -1.50646L9.10804 2.00012ZM9.10781 4.2501H9.10801L11.0326 0.743551C9.83364 0.085483 8.38218 0.085483 7.18321 0.743551L9.10781 4.2501ZM4.04919 7.02648L9.10779 4.25011L7.18323 0.743537L2.12464 3.5199L4.04919 7.02648ZM4.04883 7.02612C4.04883 7.02602 4.04883 7.0262 4.04878 7.02655C4.04874 7.02689 4.04867 7.02719 4.04861 7.02742C4.04849 7.02783 4.04846 7.02774 4.04871 7.02733C4.04918 7.02654 4.04944 7.02635 4.05024 7.02591L2.12359 3.52048C0.846489 4.2224 0.0488281 5.56484 0.0488281 7.02612H4.04883ZM4.04883 12.407V7.02612H0.0488281V12.407H4.04883ZM4.05024 12.4082C4.04948 12.4078 4.04931 12.4076 4.04889 12.4069C4.04866 12.4065 4.04865 12.4064 4.04872 12.4067C4.04885 12.4071 4.04883 12.4074 4.04883 12.407H0.0488281C0.0488281 13.8687 0.846009 15.2114 2.12359 15.9136L4.05024 12.4082ZM9.10779 15.184L4.04919 12.4076L2.12464 15.9142L7.18323 18.6905L9.10779 15.184ZM9.10801 15.184H9.10781L7.18321 18.6905C8.38218 19.3486 9.83364 19.3486 11.0326 18.6905L9.10801 15.184ZM14.1666 12.4076L9.10803 15.184L11.0326 18.6905L16.0912 15.9142L14.1666 12.4076ZM14.167 12.407C14.167 12.4074 14.167 12.4071 14.1671 12.4067C14.1672 12.4064 14.1672 12.4065 14.1669 12.4069C14.1665 12.4076 14.1663 12.4078 14.1656 12.4082L16.0922 15.9136C17.3698 15.2114 18.167 13.8687 18.167 12.407H14.167ZM14.167 7.02612V12.407H18.167V7.02612H14.167ZM14.1656 7.02591C14.1664 7.02635 14.1666 7.02654 14.1671 7.02733C14.1674 7.02774 14.1673 7.02783 14.1672 7.02742C14.1671 7.02719 14.1671 7.02689 14.167 7.02655C14.167 7.0262 14.167 7.02602 14.167 7.02612H18.167C18.167 5.56484 17.3693 4.2224 16.0922 3.52048L14.1656 7.02591ZM9.10803 4.25011L14.1666 7.02648L16.0912 3.5199L11.0326 0.743537L9.10803 4.25011Z" transform="translate(0.849609 22.123)" fill="#78D193" mask="url(#path-4-inside-2)"/>
<path d="M9.11117 0.60342C9.73957 0.231313 10.5208 0.231312 11.1492 0.60342L17.9223 4.61404C18.5303 4.9741 18.9032 5.6283 18.9032 6.33496V14.4447C18.9032 15.1514 18.5303 15.8056 17.9223 16.1656L11.1492 20.1762C10.5208 20.5483 9.73957 20.5483 9.11117 20.1762L2.33815 16.1656C1.7301 15.8056 1.35719 15.1514 1.35719 14.4447V6.33496C1.35719 5.6283 1.7301 4.9741 2.33815 4.61404L9.11117 0.60342Z" transform="matrix(0.519103 0.854712 -0.876646 0.481137 24.8496 0)" fill="#78D193"/>
<mask id="path-7-inside-3" fill="white">
<path fill-rule="evenodd" clip-rule="evenodd" d="M1.05762 4.1221C0.405273 4.48049 0 5.14846 0 5.86428V13.583C0 14.2754 0.379883 14.9092 0.999023 15.249L8.1084 19.1514C8.72852 19.4912 9.49512 19.4873 10.127 19.1406L17.1582 15.2813C17.8105 14.9239 18.2158 14.2559 18.2158 13.5391V5.82131C18.2158 5.12795 17.8359 4.49417 17.2168 4.15432L10.1074 0.252955C9.48828 -0.0878651 8.7207 -0.0839589 8.08984 0.262721L1.05762 4.1221ZM3.10645 5.2471C2.4541 5.60549 2.04785 6.27346 2.04785 6.98928V12.458C2.04785 13.1514 2.42773 13.7852 3.04785 14.125L8.10742 16.9014C8.72656 17.2422 9.49414 17.2383 10.125 16.8916L15.1074 14.1573C15.7598 13.7989 16.166 13.1309 16.166 12.4151V6.94534C16.166 6.25295 15.7861 5.61917 15.166 5.27932L10.1064 2.50198C9.4873 2.16213 8.71973 2.16604 8.08887 2.51272L3.10645 5.2471Z"/>
</mask>
<path fill-rule="evenodd" clip-rule="evenodd" d="M1.05762 4.1221C0.405273 4.48049 0 5.14846 0 5.86428V13.583C0 14.2754 0.379883 14.9092 0.999023 15.249L8.1084 19.1514C8.72852 19.4912 9.49512 19.4873 10.127 19.1406L17.1582 15.2813C17.8105 14.9239 18.2158 14.2559 18.2158 13.5391V5.82131C18.2158 5.12795 17.8359 4.49417 17.2168 4.15432L10.1074 0.252955C9.48828 -0.0878651 8.7207 -0.0839589 8.08984 0.262721L1.05762 4.1221ZM3.10645 5.2471C2.4541 5.60549 2.04785 6.27346 2.04785 6.98928V12.458C2.04785 13.1514 2.42773 13.7852 3.04785 14.125L8.10742 16.9014C8.72656 17.2422 9.49414 17.2383 10.125 16.8916L15.1074 14.1573C15.7598 13.7989 16.166 13.1309 16.166 12.4151V6.94534C16.166 6.25295 15.7861 5.61917 15.166 5.27932L10.1064 2.50198C9.4873 2.16213 8.71973 2.16604 8.08887 2.51272L3.10645 5.2471Z" transform="translate(33.9805 3.95605)" fill="#78D193"/>
<path d="M1.05762 4.1221L0.0953783 2.36879L0.0945856 2.36922L1.05762 4.1221ZM0.999023 15.249L1.96138 13.4958L1.96137 13.4958L0.999023 15.249ZM8.1084 19.1514L7.14604 20.9046L7.14721 20.9053L8.1084 19.1514ZM10.127 19.1406L11.089 20.8941L11.0893 20.8939L10.127 19.1406ZM17.1582 15.2813L16.1972 13.5273L16.1959 13.528L17.1582 15.2813ZM17.2168 4.15432L18.1791 2.40107L18.179 2.40098L17.2168 4.15432ZM10.1074 0.252955L9.14295 2.00504L9.14525 2.0063L10.1074 0.252955ZM8.08984 0.262721L9.05208 2.01603L9.05306 2.0155L8.08984 0.262721ZM3.10645 5.2471L2.14422 3.49378L2.14341 3.49422L3.10645 5.2471ZM3.04785 14.125L4.00999 12.3717L4.00904 12.3711L3.04785 14.125ZM8.10742 16.9014L9.0719 15.1493L9.06956 15.148L8.10742 16.9014ZM10.125 16.8916L9.16277 15.1383L9.16179 15.1389L10.125 16.8916ZM15.1074 14.1573L16.0696 15.9106L16.0705 15.9101L15.1074 14.1573ZM15.166 5.27932L14.2036 7.03255L14.2048 7.03321L15.166 5.27932ZM10.1064 2.50198L11.0688 0.748754L11.0688 0.74873L10.1064 2.50198ZM8.08887 2.51272L9.0511 4.26604L9.05208 4.2655L8.08887 2.51272ZM2 5.86428C2 5.87456 1.99849 5.88318 1.99676 5.88923C1.99511 5.89503 1.99359 5.89739 1.99389 5.8969C1.99459 5.89574 2.00132 5.88559 2.02065 5.87497L0.0945856 2.36922C-1.16627 3.06194 -2 4.38401 -2 5.86428H2ZM2 13.583V5.86428H-2V13.583H2ZM1.96137 13.4958C1.96112 13.4957 1.96395 13.4972 1.96834 13.5014C1.97261 13.5056 1.97771 13.5116 1.98264 13.5198C1.99315 13.5373 2 13.5604 2 13.583H-2C-2 15.023 -1.20682 16.3197 0.0366725 17.0023L1.96137 13.4958ZM9.07076 17.3981L1.96138 13.4958L0.0366655 17.0023L7.14604 20.9046L9.07076 17.3981ZM9.16488 17.3872C9.14532 17.398 9.12346 17.4034 9.10276 17.4035C9.08212 17.4036 9.0715 17.3986 9.06958 17.3975L7.14721 20.9053C8.37972 21.5807 9.87167 21.562 11.089 20.8941L9.16488 17.3872ZM16.1959 13.528L9.16461 17.3874L11.0893 20.8939L18.1205 17.0345L16.1959 13.528ZM16.2158 13.5391C16.2158 13.5293 16.2173 13.521 16.219 13.5151C16.2206 13.5094 16.2221 13.5069 16.2219 13.5072C16.2215 13.5079 16.2154 13.5173 16.1972 13.5273L18.1192 17.0353C19.3828 16.343 20.2158 15.0194 20.2158 13.5391H16.2158ZM16.2158 5.82131V13.5391H20.2158V5.82131H16.2158ZM16.2544 5.90757C16.2547 5.90771 16.2518 5.90613 16.2474 5.90186C16.2431 5.89769 16.2379 5.89163 16.233 5.88338C16.2224 5.86575 16.2158 5.84303 16.2158 5.82131H20.2158C20.2158 4.38094 19.4232 3.0839 18.1791 2.40107L16.2544 5.90757ZM9.14525 2.0063L16.2546 5.90767L18.179 2.40098L11.0696 -1.50039L9.14525 2.0063ZM9.05306 2.0155C9.07129 2.00548 9.09242 2.0001 9.11284 2C9.13319 1.9999 9.14273 2.00492 9.14295 2.00504L11.0719 -1.49913C9.83873 -2.17795 8.34366 -2.15885 7.12663 -1.49005L9.05306 2.0155ZM2.01986 5.87541L9.05208 2.01603L7.1276 -1.49059L0.0953784 2.36879L2.01986 5.87541ZM4.04785 6.98928C4.04785 7.00002 4.04627 7.00897 4.04449 7.0152C4.04279 7.02116 4.04124 7.02352 4.04161 7.02291C4.0425 7.02144 4.04966 7.01086 4.06948 6.99997L2.14341 3.49422C0.8842 4.18603 0.0478516 5.50721 0.0478516 6.98928H4.04785ZM4.04785 12.458V6.98928H0.0478516V12.458H4.04785ZM4.00904 12.3711C4.00859 12.3709 4.01141 12.3724 4.01589 12.3767C4.02025 12.3809 4.02547 12.3871 4.03049 12.3954C4.04123 12.4133 4.04785 12.4363 4.04785 12.458H0.0478516C0.0478516 13.8988 0.840987 15.1962 2.08667 15.8789L4.00904 12.3711ZM9.06956 15.148L4.00999 12.3717L2.08572 15.8784L7.14529 18.6548L9.06956 15.148ZM9.16179 15.1389C9.14355 15.1489 9.12243 15.1542 9.102 15.1543C9.08165 15.1544 9.07211 15.1494 9.0719 15.1493L7.14295 18.6535C8.37612 19.3323 9.87119 19.3132 11.0882 18.6444L9.16179 15.1389ZM14.1452 12.4039L9.16277 15.1383L11.0872 18.6449L16.0696 15.9106L14.1452 12.4039ZM14.166 12.4151C14.166 12.4043 14.1676 12.3954 14.1694 12.3892C14.1711 12.3832 14.1726 12.3808 14.1723 12.3814C14.1714 12.3829 14.1642 12.3935 14.1444 12.4044L16.0705 15.9101C17.3297 15.2183 18.166 13.8971 18.166 12.4151H14.166ZM14.166 6.94534V12.4151H18.166V6.94534H14.166ZM14.2048 7.03321C14.2053 7.03345 14.2025 7.03196 14.1981 7.0277C14.1938 7.02356 14.1886 7.01747 14.1836 7.00912C14.1729 6.9913 14.166 6.96804 14.166 6.94534H18.166C18.166 5.50495 17.3724 4.20782 16.1272 3.52543L14.2048 7.03321ZM9.14405 4.2552L14.2036 7.03255L16.1284 3.5261L11.0688 0.748754L9.14405 4.2552ZM9.05208 4.2655C9.0703 4.25548 9.09165 4.24999 9.11257 4.24988C9.13345 4.24977 9.14353 4.25492 9.14409 4.25523L11.0688 0.74873C9.83665 0.0724103 8.34262 0.0911808 7.12565 0.759945L9.05208 4.2655ZM4.06867 7.00041L9.0511 4.26604L7.12664 0.759405L2.14422 3.49378L4.06867 7.00041Z" transform="translate(33.9805 3.95605)" fill="#78D193" mask="url(#path-7-inside-3)"/>
</svg>
