<svg width="56" height="53" viewBox="0 0 56 53" fill="none" xmlns="http://www.w3.org/2000/svg">
<g filter="url(#filter0_d)">
<g filter="url(#filter1_d)">
<path fill-rule="evenodd" clip-rule="evenodd" d="M15.4316 0C0 0 0 14.3691 0 14.3691V32.6562H11.4316C13.6406 32.6562 15.4316 30.8652 15.4316 28.6562V14.3691H5.14453C5.14453 14.3691 4.54102 5.79297 14.4316 5.25195C14.9824 5.22168 15.4316 4.77734 15.4316 4.22559V0ZM36 0C20.5684 0 20.5684 14.3691 20.5684 14.3691V32.6562H32C34.209 32.6562 36 30.8652 36 28.6562V14.3691H25.7129C25.7129 14.3691 25.1094 5.79297 35 5.25195C35.5508 5.22168 36 4.77734 36 4.22559V0Z" transform="translate(10 10)" fill="#FFA506"/>
</g>
</g>
<defs>
<filter id="filter0_d" x="0" y="0" width="56" height="52.6562" filterUnits="userSpaceOnUse" color-interpolation-filters="sRGB">
<feFlood flood-opacity="0" result="BackgroundImageFix"/>
<feColorMatrix in="SourceAlpha" type="matrix" values="0 0 0 0 0 0 0 0 0 0 0 0 0 0 0 0 0 0 255 0"/>
<feOffset/>
<feGaussianBlur stdDeviation="5"/>
<feColorMatrix type="matrix" values="0 0 0 0 0 0 0 0 0 0 0 0 0 0 0 0 0 0 0.1 0"/>
<feBlend mode="normal" in2="BackgroundImageFix" result="effect1_dropShadow"/>
<feBlend mode="normal" in="SourceGraphic" in2="effect1_dropShadow" result="shape"/>
</filter>
<filter id="filter1_d" x="6" y="7" width="44" height="40.6562" filterUnits="userSpaceOnUse" color-interpolation-filters="sRGB">
<feFlood flood-opacity="0" result="BackgroundImageFix"/>
<feColorMatrix in="SourceAlpha" type="matrix" values="0 0 0 0 0 0 0 0 0 0 0 0 0 0 0 0 0 0 255 0"/>
<feOffset dy="1"/>
<feGaussianBlur stdDeviation="2"/>
<feColorMatrix type="matrix" values="0 0 0 0 0 0 0 0 0 0 0 0 0 0 0 0 0 0 0.2 0"/>
<feBlend mode="normal" in2="BackgroundImageFix" result="effect1_dropShadow"/>
<feBlend mode="normal" in="SourceGraphic" in2="effect1_dropShadow" result="shape"/>
</filter>
</defs>
</svg>
