<svg width="49" height="52" viewBox="0 0 49 52" fill="none" xmlns="http://www.w3.org/2000/svg">
<path d="M20.2141 21.2332L0 10.192L20.2141 0M20.2141 21.2332L40.4283 10.192M20.2141 21.2332V43.3157M20.2141 43.3157L40.4283 32.3958M20.2141 43.3157L0 32.3958" transform="translate(4.85742 4.51953)" stroke="#78D193" stroke-width="2"/>
<path fill-rule="evenodd" clip-rule="evenodd" d="M24.1484 7.99805C26.4639 7.99805 28.3408 6.20801 28.3408 3.99902C28.3408 1.79004 26.4639 0 24.1484 0C21.833 0 19.9561 1.79004 19.9561 3.99902C19.9561 6.20801 21.833 7.99805 24.1484 7.99805ZM24.1484 29.3525C26.4639 29.3525 28.3408 27.5625 28.3408 25.3535C28.3408 23.1445 26.4639 21.3545 24.1484 21.3545C21.833 21.3545 19.9561 23.1445 19.9561 25.3535C19.9561 27.5625 21.833 29.3525 24.1484 29.3525ZM48.2949 14.4346C48.2949 16.6436 46.418 18.4336 44.1025 18.4336C41.7871 18.4336 39.9102 16.6436 39.9102 14.4346C39.9102 12.2256 41.7871 10.4355 44.1025 10.4355C46.418 10.4355 48.2949 12.2256 48.2949 14.4346ZM4.19238 18.4336C6.50781 18.4336 8.38477 16.6436 8.38477 14.4346C8.38477 12.2256 6.50781 10.4355 4.19238 10.4355C1.87695 10.4355 0 12.2256 0 14.4346C0 16.6436 1.87695 18.4336 4.19238 18.4336ZM28.3408 47.1934C28.3408 49.4023 26.4639 51.1924 24.1484 51.1924C21.833 51.1924 19.9561 49.4023 19.9561 47.1934C19.9561 44.9844 21.833 43.1943 24.1484 43.1943C26.4639 43.1943 28.3408 44.9844 28.3408 47.1934ZM44.1025 40.2725C46.418 40.2725 48.2949 38.4824 48.2949 36.2734C48.2949 34.0645 46.418 32.2744 44.1025 32.2744C41.7871 32.2744 39.9102 34.0645 39.9102 36.2734C39.9102 38.4824 41.7871 40.2725 44.1025 40.2725ZM8.38477 36.2734C8.38477 38.4824 6.50781 40.2725 4.19238 40.2725C1.87695 40.2725 0 38.4824 0 36.2734C0 34.0645 1.87695 32.2744 4.19238 32.2744C6.50781 32.2744 8.38477 34.0645 8.38477 36.2734Z" transform="translate(0.664062 0.000976562)" fill="#78D193"/>
</svg>
