<svg width="75" height="43" viewBox="0 0 75 43" fill="none" xmlns="http://www.w3.org/2000/svg">
<path fill-rule="evenodd" clip-rule="evenodd" d="M0 2V28.9932C0 30.0977 0.895508 30.9932 2 30.9932H26.2646L30.3545 20.9375C29.1084 19.1592 28.3662 16.9248 28.3662 14.4971C28.3662 8.91699 32.2871 4.35352 37.2373 4.01855L38.8721 0H2C0.895508 0 0 0.895508 0 2ZM13.9727 20.0205C12.7617 19.9238 11.6396 19.4199 10.833 18.7119L11.4756 17.4883C12.2324 18.1484 13.1396 18.5566 13.9727 18.6768V16.2764C12.7119 15.917 11.3496 15.4727 11.3496 13.877C11.3496 12.5938 12.3838 11.7422 13.9727 11.5742V9.99023H15.082V11.5615C16.04 11.6455 16.96 11.958 17.6533 12.4014L17.0361 13.6494C16.3545 13.2539 15.6611 13.0254 15.082 12.9297V15.1494C16.3672 15.5215 17.7793 15.9766 17.7666 17.6201C17.7666 18.9521 16.6826 19.8281 15.082 20.0078V21.6992H13.9727V20.0205ZM13.9727 12.9053C13.3799 13.002 13.0137 13.2891 13.0137 13.7451C13.0137 14.2734 13.4053 14.5732 13.9727 14.7891V12.9053ZM15.082 16.6006V18.6641C15.7373 18.5322 16.1152 18.1963 16.1152 17.6924C16.1152 17.1289 15.6865 16.8291 15.082 16.6006Z" transform="translate(0.5 5.99902)" fill="#78D193"/>
<path d="M16.8096 0L0 40.991" transform="translate(25.7148 1)" stroke="#78D193" stroke-width="2" stroke-linecap="round"/>
<path fill-rule="evenodd" clip-rule="evenodd" d="M38.8721 28.9932V2C38.8721 0.895508 37.9766 0 36.8721 0H12.6074L9.76367 6.99219C11.5186 8.89844 12.6074 11.5566 12.6074 14.4971C12.6074 20.2939 8.37402 24.9941 3.15137 24.9941C2.91602 24.9941 2.68359 24.9844 2.45215 24.9658L0 30.9932H36.8721C37.9766 30.9932 38.8721 30.0977 38.8721 28.9932ZM25.5293 20.0205C24.3184 19.9238 23.1963 19.4199 22.3896 18.7119L23.0322 17.4883C23.7891 18.1484 24.6963 18.5566 25.5293 18.6768V16.2764C24.2686 15.917 22.9062 15.4727 22.9062 13.877C22.9062 12.5938 23.9404 11.7422 25.5293 11.5742V9.99023H26.6387V11.5615C27.5967 11.6455 28.5166 11.958 29.21 12.4014L28.5928 13.6494C27.9111 13.2539 27.2178 13.0254 26.6387 12.9297V15.1494C27.9238 15.5215 29.3359 15.9766 29.3232 17.6201C29.3232 18.9521 28.2393 19.8281 26.6387 20.0078V21.6992H25.5293V20.0205ZM25.5293 12.9053C24.9365 13.002 24.5703 13.2891 24.5703 13.7451C24.5703 14.2734 24.9619 14.5732 25.5293 14.7891V12.9053ZM26.6387 16.6006V18.6641C27.2939 18.5322 27.6719 18.1963 27.6719 17.6924C27.6719 17.1289 27.2432 16.8291 26.6387 16.6006Z" transform="translate(35.1699 5.99902)" fill="#78D193"/>
<path d="M16.8096 0L0 40.991" transform="translate(32.0176 1)" stroke="#78D193" stroke-width="2" stroke-linecap="round"/>
</svg>
