<?xml version="1.0" encoding="UTF-8" standalone="no"?>
<svg
   xmlns:dc="http://purl.org/dc/elements/1.1/"
   xmlns:cc="http://creativecommons.org/ns#"
   xmlns:rdf="http://www.w3.org/1999/02/22-rdf-syntax-ns#"
   xmlns:svg="http://www.w3.org/2000/svg"
   xmlns="http://www.w3.org/2000/svg"
   xmlns:sodipodi="http://sodipodi.sourceforge.net/DTD/sodipodi-0.dtd"
   xmlns:inkscape="http://www.inkscape.org/namespaces/inkscape"
   viewBox="0 0 83.419998 76.900024"
   version="1.1"
   id="svg3889"
   sodipodi:docname="logo-white-orange.svg"
   width="83.419998"
   height="76.900024"
   inkscape:version="0.92.2 5c3e80d, 2017-08-06"
   inkscape:export-filename="/Users/jonny/Desktop/logo-blue2-orange.png"
   inkscape:export-xdpi="96"
   inkscape:export-ydpi="96">
  <metadata
     id="metadata3893">
    <rdf:RDF>
      <cc:Work
         rdf:about="">
        <dc:format>image/svg+xml</dc:format>
        <dc:type
           rdf:resource="http://purl.org/dc/dcmitype/StillImage" />
        <dc:title>onecolor-onblue</dc:title>
      </cc:Work>
    </rdf:RDF>
  </metadata>
  <sodipodi:namedview
     pagecolor="#ffffff"
     bordercolor="#666666"
     borderopacity="1"
     objecttolerance="10"
     gridtolerance="10"
     guidetolerance="10"
     inkscape:pageopacity="0"
     inkscape:pageshadow="2"
     inkscape:window-width="1790"
     inkscape:window-height="1013"
     id="namedview3891"
     showgrid="false"
     inkscape:zoom="1"
     inkscape:cx="-264.41066"
     inkscape:cy="89.738632"
     inkscape:window-x="0"
     inkscape:window-y="93"
     inkscape:window-maximized="0"
     inkscape:current-layer="layer1"
     inkscape:pagecheckerboard="true" />
  <defs
     id="defs3843">
    <style
       id="style3841">.cls-1{fill:#6bbcf2;}.cls-2,.cls-3{fill:#fff;}.cls-3{font-size:6.96px;font-family:MyriadPro-Regular, Myriad Pro;}.cls-4{opacity:0.4;}</style>
    <style
       id="style4191">.cls-1{fill:#ffa506;}.cls-2,.cls-3{fill:#fff;}.cls-3{font-size:6.96px;font-family:MyriadPro-Regular, Myriad Pro;}.cls-4{opacity:0.4;}</style>
    <style
       id="style3841-8">.cls-1{fill:#6bbcf2;}.cls-2,.cls-3{fill:#fff;}.cls-3{font-size:6.96px;font-family:MyriadPro-Regular, Myriad Pro;}.cls-4{opacity:0.4;}</style>
    <style
       id="style3841-7">.cls-1{fill:#6bbcf2;}.cls-2,.cls-3{fill:#fff;}.cls-3{font-size:6.96px;font-family:MyriadPro-Regular, Myriad Pro;}.cls-4{opacity:0.4;}</style>
  </defs>
  <title
     id="title3845">onecolor-onblue</title>
  <g
     id="Layer_2"
     data-name="Layer 2"
     transform="translate(-152.45,-68.999973)">
    <g
       id="Final">
      <g
         class="cls-4"
         id="g3885"
         style="opacity:0.4" />
    </g>
  </g>
  <g
     inkscape:groupmode="layer"
     id="layer1"
     inkscape:label="Layer 1"
     style="display:inline;opacity:1"
     transform="translate(-152.45,-68.999973)"
     sodipodi:insensitive="true">
    <g
       id="g6042"
       transform="translate(-6,19)">
      <path
         inkscape:connector-curvature="0"
         id="path3877"
         d="m 200.2,50 a 7.91,7.91 0 0 0 -5.59,2.32 l -11.53,11.53 10.44,10.43 -7.52,7.54 -17.14,17.07 v 0 0 l 2.61,2.61 v 0 l 15.65,15.65 v 0 l 2.61,2.6 v 0 L 195,125 a 7.89,7.89 0 0 0 10.72,-0.42 l 11.53,-11.53 -10.36,-10.36 24.63,-24.64 v 0 0 L 205.33,51.9 A 7.82,7.82 0 0 0 200.2,50 Z m -11.61,34.43 7.54,-7.54 15.65,15.65 -7.54,7.54 z"
         class="cls-2"
         style="fill:#ffffff;fill-opacity:1" />
      <path
         inkscape:connector-curvature="0"
         id="path3879"
         d="m 181,76.83 v 0 a 7.9,7.9 0 0 0 -11.15,0.27 v 0 l -11.4,11.38 7.8,7.8 17.12,-17.07 z"
         class="cls-2"
         style="fill:#ffc96a;fill-opacity:1" />
      <path
         inkscape:connector-curvature="0"
         id="path3881"
         d="m 219.3,100.07 v 0 a 7.91,7.91 0 0 0 11.14,-0.27 v 0 l 11.39,-11.39 -7.79,-7.8 -17.12,17.08 z"
         class="cls-2"
         style="fill:#ffc96a;fill-opacity:1" />
      <path
         inkscape:connector-curvature="0"
         id="path3883"
         d="m 234,111.14 a 7.88,7.88 0 1 0 7.87,7.88 7.88,7.88 0 0 0 -7.87,-7.88 z m 0,12 a 4.1,4.1 0 1 1 4.1,-4.1 4.1,4.1 0 0 1 -4.1,4.08 z"
         class="cls-2"
         style="fill:#ffc96a;fill-opacity:1" />
    </g>
  </g>
</svg>
